<svg xmlns="http://www.w3.org/2000/svg" viewBox="0 0 48 48" id="Body-Care-Cream--Streamline-Ultimate" height="48" width="48">
  <desc>
    Body Care Cream Streamline Icon: https://streamlinehq.com
  </desc>
  <g id="Body-Care-Cream--Streamline-Ultimate.svg">
    <path d="M12 18h24.22a1.02 1.02 0 0 0 0.78 -0.38c3.66 -4.58 4 -10.14 0.88 -16.52a2 2 0 0 0 -1.62 -1.1 1.82 1.82 0 0 0 -1.74 0.9c-1.58 2.46 -3.6 4.88 -9.46 4.88 -13.84 0 -14 11.12 -14 11.22A1 1 0 0 0 12 18Z" fill="#b8985f" stroke-width="2"></path>
    <path d="M46 28.5H2a2 2 0 0 0 -2 2v12.5A5 5 0 0 0 5 48h38a5 5 0 0 0 5 -5v-12.5a2 2 0 0 0 -2 -2Zm-6 12.5a1 1 0 0 1 -1 1h-30a1 1 0 0 1 -1 -1v-5.5a1 1 0 0 1 1 -1h30a1 1 0 0 1 1 1Z" fill="#b8985f" stroke-width="2"></path>
    <path d="M6.52 26h34.96a1.02 1.02 0 0 0 0.8 -1.6c-1.1 -1.46 -2.82 -3.84 -4.78 -3.84H10.5c-2 0 -3.68 2.38 -4.78 3.84a1.02 1.02 0 0 0 0.8 1.6Z" fill="#b8985f" stroke-width="2"></path>
  </g>
</svg>