<svg xmlns="http://www.w3.org/2000/svg" viewBox="0 0 96 96" id="Hair-Skin--Streamline-Ultimate" height="96" width="96">
  <desc>
    Hair Skin Streamline Icon: https://streamlinehq.com
  </desc>
  <g id="Hair-Skin--Streamline-Ultimate.svg">
    <path d="M48 59.64a16 16 0 0 0 16 -16 20.4 20.4 0 0 0 -2.76 -9.6c-2.68 -5.48 -5.44 -11.12 1.48 -28A4 4 0 0 0 56.6 1.12C49.8 6.2 29 21.64 32 44a16.8 16.8 0 0 0 16 15.64Z" fill="#b8985f" stroke-width="4"></path>
    <path d="M90 43.64h-16a4 4 0 0 0 -4 3.76 22 22 0 0 1 -44 0 4 4 0 0 0 -4 -3.76h-16a6 6 0 0 0 -6 6v40a6 6 0 0 0 6 6h84a6 6 0 0 0 6 -6v-40a6 6 0 0 0 -6 -6Zm-84 18a4 4 0 0 1 4 -4 4 4 0 1 1 0 8 4 4 0 0 1 -4 -4Zm8 28a4 4 0 1 1 0 -8 4 4 0 1 1 0 8ZM28 75.6a4 4 0 1 1 0 -8 4 4 0 1 1 0 8Zm8 14.04a4 4 0 1 1 0 -8 4 4 0 1 1 0 8Zm22 0a4 4 0 1 1 0 -8 4 4 0 1 1 0 8ZM68 75.6a4 4 0 1 1 0 -8 4 4 0 1 1 0 8Zm12 14.04a4 4 0 1 1 0 -8 4 4 0 1 1 0 8Zm6 -24a4 4 0 1 1 0 -8 4 4 0 1 1 0 8Z" fill="#b8985f" stroke-width="4"></path>
  </g>
</svg>