<svg xmlns="http://www.w3.org/2000/svg" fill="none" viewBox="-1.5 -1.5 48 48" id="Hair-Skin--Streamline-Ultimate" height="48" width="48">
  <desc>
    Hair Skin Streamline Icon: https://streamlinehq.com
  </desc>
  <path stroke="#e5c499" stroke-linecap="round" stroke-linejoin="round" d="M43.546875 20.17875h-9.75c0 2.9836875 -1.1851875 5.8451249999999995 -3.2949375 7.954875 -2.1099375 2.10975 -4.971375 3.295125 -7.9550625 3.295125s-5.8451249999999995 -1.185375 -7.954912499999999 -3.295125c-2.10976875 -2.10975 -3.2950500000000003 -4.9711875 -3.2950500000000003 -7.954875H1.45317" stroke-width="3"></path>
  <path stroke="#e5c499" stroke-linecap="round" stroke-linejoin="round" d="M15.5156625 18.7726875c0 1.8646875 0.74079375 3.65325 2.05940625 4.97175 1.31855625 1.3186875 3.10711875 2.0595 4.97180625 2.0595 1.864875 0 3.65325 -0.7408125 4.9719375 -2.0595 1.3185 -1.3185 2.0593125 -3.1070625 2.0593125 -4.97175 0 -4.9781812500000004 -5.506875 -6.65255625 -3.8493749999999998 -14.76943125 0.058499999999999996 -0.28426875 0.0275625 -0.5796375 -0.0883125 -0.8457 -0.115875 -0.2660625 -0.31106249999999996 -0.48982500000000007 -0.5589375 -0.64066875 -0.2480625 -0.1508625 -0.5364375 -0.22141875 -0.826125 -0.20203125 -0.28950000000000004 0.01936875 -0.565875 0.12774375 -0.791625 0.31027499999999997 -2.3385000000000002 2.02216875 -4.2470625 4.493475 -5.61241875 7.26729375 -1.3653375 2.7738 -2.1596062500000004 5.7936000000000005 -2.33566875 8.880262499999999Z" stroke-width="3"></path>
  <path stroke="#e5c499" d="M2.8594125 41.975625c-0.3883125 0 -0.703125 -0.3148125 -0.703125 -0.703125s0.3148125 -0.703125 0.703125 -0.703125" stroke-width="3"></path>
  <path stroke="#e5c499" d="M2.8594125 41.975625c0.38833124999999996 0 0.703125 -0.3148125 0.703125 -0.703125s-0.31479375000000004 -0.703125 -0.703125 -0.703125" stroke-width="3"></path>
  <path stroke="#e5c499" d="M15.5156625 41.975625c-0.3883125 0 -0.703125 -0.3148125 -0.703125 -0.703125s0.3148125 -0.703125 0.703125 -0.703125" stroke-width="3"></path>
  <path stroke="#e5c499" d="M15.5156625 41.975625c0.38833124999999996 0 0.703125 -0.3148125 0.703125 -0.703125s-0.31479375000000004 -0.703125 -0.703125 -0.703125" stroke-width="3"></path>
  <path stroke="#e5c499" d="M29.578125 41.975625c-0.3883125 0 -0.703125 -0.3148125 -0.703125 -0.703125s0.3148125 -0.703125 0.703125 -0.703125" stroke-width="3"></path>
  <path stroke="#e5c499" d="M29.578125 41.975625c0.3883125 0 0.703125 -0.3148125 0.703125 -0.703125s-0.3148125 -0.703125 -0.703125 -0.703125" stroke-width="3"></path>
  <path stroke="#e5c499" d="M42.234375 41.975625c-0.3883125 0 -0.703125 -0.3148125 -0.703125 -0.703125s0.3148125 -0.703125 0.703125 -0.703125" stroke-width="3"></path>
  <path stroke="#e5c499" d="M42.234375 41.975625c0.3883125 0 0.703125 -0.3148125 0.703125 -0.703125s-0.3148125 -0.703125 -0.703125 -0.703125" stroke-width="3"></path>
  <path stroke="#e5c499" d="M42.234375 27.913125c-0.3883125 0 -0.703125 -0.3148125 -0.703125 -0.703125s0.3148125 -0.703125 0.703125 -0.703125" stroke-width="3"></path>
  <path stroke="#e5c499" d="M42.234375 27.913125c0.3883125 0 0.703125 -0.3148125 0.703125 -0.703125s-0.3148125 -0.703125 -0.703125 -0.703125" stroke-width="3"></path>
  <path stroke="#e5c499" d="M36.609375 34.944375c-0.3883125 0 -0.703125 -0.3148125 -0.703125 -0.703125s0.3148125 -0.703125 0.703125 -0.703125" stroke-width="3"></path>
  <path stroke="#e5c499" d="M36.609375 34.944375c0.3883125 0 0.703125 -0.3148125 0.703125 -0.703125s-0.3148125 -0.703125 -0.703125 -0.703125" stroke-width="3"></path>
  <path stroke="#e5c499" d="M8.4844125 34.944375c-0.3883125 0 -0.703125 -0.3148125 -0.703125 -0.703125s0.3148125 -0.703125 0.703125 -0.703125" stroke-width="3"></path>
  <path stroke="#e5c499" d="M8.4844125 34.944375c0.38833124999999996 0 0.703125 -0.3148125 0.703125 -0.703125s-0.31479375000000004 -0.703125 -0.703125 -0.703125" stroke-width="3"></path>
  <path stroke="#e5c499" d="M2.8594125 27.913125c-0.3883125 0 -0.703125 -0.3148125 -0.703125 -0.703125s0.3148125 -0.703125 0.703125 -0.703125" stroke-width="3"></path>
  <path stroke="#e5c499" d="M2.8594125 27.913125c0.38833124999999996 0 0.703125 -0.3148125 0.703125 -0.703125s-0.31479375000000004 -0.703125 -0.703125 -0.703125" stroke-width="3"></path>
</svg>