<svg xmlns="http://www.w3.org/2000/svg" fill="none" viewBox="0 0 52 52" id="Health-And-Beauty-Fill--Streamline-Outlined-Fill-Material" height="52" width="52">
  <desc>
    Health And Beauty Fill Streamline Icon: https://streamlinehq.com
  </desc>
  <path fill="#b8985f" d="M36.887499999999996 47.66645c-0.43333333333333335 0 -0.8125 -0.16249999999999998 -1.1375 -0.4875 -0.32499999999999996 -0.32499999999999996 -0.4875 -0.7041666666666666 -0.4875 -1.1375s0.16249999999999998 -0.8125 0.4875 -1.1375c0.32499999999999996 -0.32499999999999996 0.7041666666666666 -0.4875 1.1375 -0.4875h7.854166666666666v-5.633333333333333h-7.854166666666666c-0.43333333333333335 0 -0.8125 -0.16249999999999998 -1.1375 -0.4875 -0.32499999999999996 -0.32499999999999996 -0.4875 -0.7041666666666666 -0.4875 -1.1375s0.16249999999999998 -0.8125 0.4875 -1.1375c0.32499999999999996 -0.32499999999999996 0.7041666666666666 -0.4875 1.1375 -0.4875h7.854166666666666v-5.633333333333333h-7.854166666666666c-0.43333333333333335 0 -0.8125 -0.16249999999999998 -1.1375 -0.4875 -0.32499999999999996 -0.32499999999999996 -0.4875 -0.7041666666666666 -0.4875 -1.1375s0.16249999999999998 -0.8125 0.4875 -1.1375c0.32499999999999996 -0.32499999999999996 0.7041666666666666 -0.4875 1.1375 -0.4875h7.854166666666666v-5.633333333333333h-7.854166666666666c-0.43333333333333335 0 -0.8125 -0.16249999999999998 -1.1375 -0.4875 -0.32499999999999996 -0.32499999999999996 -0.4875 -0.7041666666666666 -0.4875 -1.1375s0.16249999999999998 -0.8125 0.4875 -1.1375c0.32499999999999996 -0.32499999999999996 0.7041666666666666 -0.4875 1.1375 -0.4875h7.854166666666666v-5.633333333333333h-7.854166666666666c-0.43333333333333335 0 -0.8125 -0.16249999999999998 -1.1375 -0.4875 -0.32499999999999996 -0.32499999999999996 -0.4875 -0.7041666666666666 -0.4875 -1.1375s0.16249999999999998 -0.8125 0.4875 -1.1375c0.32499999999999996 -0.32499999999999996 0.7041666666666666 -0.4875 1.1375 -0.4875h8.991666666666667c1.1194083333333333 0 2.058333333333333 0.3791666666666666 2.8166666666666664 1.1375 0.7583333333333332 0.7583333333333332 1.1375 1.697258333333333 1.1375 2.8166666666666664v30.874999999999996c0 1.1194083333333333 -0.3791666666666666 2.058333333333333 -1.1375 2.8166666666666664 -0.7583333333333332 0.7583333333333332 -1.697258333333333 1.1375 -2.8166666666666664 1.1375h-8.991666666666667Zm-26.216666666666665 0L2.1666666666666665 24.26645l11.158333333333333 -6.554166666666666v-13.325h6.716666666666667v13.325l11.158333333333333 6.554166666666666 -8.504166666666666 23.4H10.670833333333333Z" stroke-width="1.0833"></path>
</svg>