<?xml version="1.0" encoding="UTF-8"?><svg id="Layer_2" xmlns="http://www.w3.org/2000/svg" viewBox="0 0 182.95 301.59"><defs><style>.cls-1{fill:#b8985e;}.cls-1,.cls-2{stroke:#fff;stroke-miterlimit:10;stroke-width:5px;}.cls-2{fill:#017c53;}</style></defs><g id="Layer_2-2"><path class="cls-1" d="M142.58,134.24v164.85H2.5v-164.85c5.6-10.43,12.94-19.52,21.55-26.65v59.37c0,32.86,21.64,59.6,48.49,60.32v.05h0v-.05c26.85-.72,48.49-27.46,48.49-60.32v-59.37c8.61,7.13,15.95,16.22,21.55,26.65Z"/><path class="cls-1" d="M121.03,83.34v83.62c0,32.86-21.64,59.6-48.49,60.32v.05h0v-.05c-26.85-.72-48.49-27.63-48.49-60.7v-83.51c5.6-6.21,19.14-9.34,34.57-10.2l-18.1,54.01h42.79v-3.35l.39,3.35h21.22l-18.22-53.62c15.32.96,28.75,4.11,34.32,10.09Z"/><polygon class="cls-1" points="69.31 64.69 68.63 74.09 64.94 126.88 40.23 126.88 57.82 74.25 58.1 74.25 61.28 64.69 69.31 64.69"/><polygon class="cls-1" points="83.32 123.6 83.32 126.88 64.61 126.88 68.3 74.09 68.98 64.69 76.2 64.69 77.36 74.09 83.32 123.6"/><rect class="cls-1" x="61.77" y="2.5" width="21.55" height="62.19"/><polygon class="cls-1" points="104.61 126.88 84.53 126.88 84.17 123.6 78.21 74.09 77.05 64.69 84.17 64.69 87.38 74.42 104.61 126.88"/><polygon class="cls-2" points="180.45 33.49 180.45 55.76 153.72 55.76 153.72 82.49 131.44 82.49 131.44 55.76 104.71 55.76 104.71 33.49 131.44 33.49 131.44 6.76 153.72 6.76 153.72 33.49 180.45 33.49"/></g></svg>