<?xml version="1.0" encoding="UTF-8"?><svg id="Layer_2" xmlns="http://www.w3.org/2000/svg" viewBox="0 0 127.21 182.09"><defs><style>.cls-1{fill:#418649;}.cls-1,.cls-2,.cls-3{stroke:#b8985e;stroke-miterlimit:10;stroke-width:3px;}.cls-2{fill:#b8985e;}.cls-3{fill:none;}</style></defs><g id="Layer_2-2"><path class="cls-2" d="M76.6,81.05v99.54H1.5v-99.54c3-6.3,6.94-11.79,11.55-16.09v35.85c0,19.84,11.6,35.99,26,36.42v.03h0v-.03c14.4-.43,26-16.58,26-36.42v-35.85c4.62,4.3,8.55,9.79,11.55,16.09Z"/><path class="cls-3" d="M65.05,50.32v50.49c0,19.84-11.6,35.99-26,36.42v.03h0v-.03c-14.4-.44-26-16.68-26-36.65v-50.43c3-3.75,10.26-5.64,18.54-6.16l-9.71,32.61h22.94v-2.02l.21,2.02h11.38l-9.77-32.38c8.21.58,15.41,2.48,18.4,6.09Z"/><polygon class="cls-3" points="37.32 39.05 36.95 44.73 34.98 76.6 21.73 76.6 31.16 44.83 31.31 44.83 33.01 39.05 37.32 39.05"/><polygon class="cls-3" points="44.83 74.62 44.83 76.6 34.8 76.6 36.77 44.73 37.14 39.05 41.01 39.05 41.63 44.73 44.83 74.62"/><rect class="cls-2" x="33.27" y="1.5" width="11.55" height="37.55"/><polygon class="cls-3" points="56.25 76.6 45.48 76.6 45.28 74.62 42.09 44.73 41.47 39.05 45.28 39.05 47.01 44.93 56.25 76.6"/><polygon class="cls-1" points="125.71 18.83 125.71 33.27 108.37 33.27 108.37 50.6 93.93 50.6 93.93 33.27 76.6 33.27 76.6 18.83 93.93 18.83 93.93 1.5 108.37 1.5 108.37 18.83 125.71 18.83"/></g></svg>