<?xml version="1.0" encoding="UTF-8"?><svg id="Layer_2" xmlns="http://www.w3.org/2000/svg" viewBox="0 0 181.53 247.13"><defs><style>.cls-1{fill:#b8985e;}.cls-1,.cls-2{stroke:#fff;stroke-miterlimit:10;stroke-width:5px;}.cls-2{fill:#017c53;}</style></defs><g id="Layer_2-2"><path class="cls-1" d="M142.58,111.72v132.9H2.5V111.72c5.6-8.41,12.94-15.74,21.55-21.48v47.86c0,26.5,21.64,48.06,48.49,48.63v.04h0v-.04c26.85-.58,48.49-22.14,48.49-48.63v-47.86c8.61,5.75,15.95,13.07,21.55,21.48Z"/><path class="cls-1" d="M121.03,70.69v67.42c0,26.5-21.64,48.06-48.49,48.63v.04h0v-.04c-26.85-.58-48.49-22.28-48.49-48.94v-67.33c5.6-5.01,19.14-7.53,34.57-8.23l-18.1,43.54h42.79v-2.7l.39,2.7h21.22l-18.22-43.23c15.32.77,28.75,3.32,34.32,8.14Z"/><polygon class="cls-1" points="69.31 55.64 68.63 63.23 64.94 105.78 40.23 105.78 57.82 63.36 58.1 63.36 61.28 55.64 69.31 55.64"/><polygon class="cls-1" points="83.32 103.14 83.32 105.78 64.61 105.78 68.3 63.23 68.98 55.64 76.2 55.64 77.36 63.23 83.32 103.14"/><rect class="cls-1" x="61.77" y="5.51" width="21.55" height="50.14"/><polygon class="cls-1" points="104.61 105.78 84.53 105.78 84.17 103.14 78.21 63.23 77.05 55.64 84.17 55.64 87.38 63.49 104.61 105.78"/><polygon class="cls-2" points="179.03 29.23 179.03 51.5 152.3 51.5 152.3 78.23 130.02 78.23 130.02 51.5 103.29 51.5 103.29 29.23 130.02 29.23 130.02 2.5 152.3 2.5 152.3 29.23 179.03 29.23"/></g></svg>